<?xml version="1.0" encoding="utf-8"?>
<!-- Generator: Adobe Illustrator 28.0.0, SVG Export Plug-In . SVG Version: 6.00 Build 0)  -->
<svg version="1.1" id="Layer_1" xmlns="http://www.w3.org/2000/svg" xmlns:xlink="http://www.w3.org/1999/xlink" x="0px" y="0px"
	 viewBox="0 0 212 215" style="enable-background:new 0 0 212 215;" xml:space="preserve">
<style type="text/css">
	.st0{fill:#F5A2C4;}
	.st1{fill:#5E57A6;}
	.st2{fill:#231F20;stroke:#231F20;stroke-width:2;stroke-miterlimit:10;}
</style>
<g>
	<path class="st0" d="M58.7,172.9c30.6,0,55.3-24.8,55.3-55.3c0-30.6-24.8-55.3-55.3-55.3C28.2,62.2,3.5,87,3.5,117.6
		C3.5,148.1,28.2,172.9,58.7,172.9z"/>
	<path class="st1" d="M58.7,116.2c30.6,0,55.3-24.8,55.3-55.3c0.1-30.6-24.7-55.4-55.3-55.4C28.2,5.5,3.5,30.3,3.5,60.8
		C3.5,91.4,28.2,116.2,58.7,116.2z"/>
	<path class="st0" d="M153.3,172.9c30.6,0,55.3-24.8,55.3-55.3c0-30.6-24.8-55.3-55.3-55.3c-30.6,0-55.3,24.8-55.3,55.3
		C97.9,148.1,122.7,172.9,153.3,172.9z"/>
	<path class="st1" d="M153.3,116.2c30.6,0,55.3-24.8,55.3-55.3c0-30.6-24.8-55.3-55.3-55.3C122.7,5.6,98,30.4,98,60.9
		C97.9,91.4,122.7,116.2,153.3,116.2z"/>
	<path class="st2" d="M35.1,196.9c0-6.8,4.2-11,10.8-11c1.9,0,3,0.5,3.8,0.5c0.6,0,1.1-0.3,1.7-0.3c1.2,0,2.1,1.2,2.8,2.9
		c0.3,1,0.5,2.1,0.5,3.3c0,1.3-0.8,2.3-1.8,2.3c-1.5,0-2.1-1.1-2.8-2.1c-0.8-1.3-1.6-2.7-4.2-2.7c-3.2,0-4.7,2.5-4.7,7.4
		c0,4.5,2.1,7.4,5.8,7.4c1.5,0,2.5-0.3,4.6-1c0.5-0.2,1-0.3,1.3-0.3c0.4,0,0.8,0.1,1,0.4c0.2,0.2,0.4,0.6,0.4,1.1
		c0,0.4-0.1,0.8-0.4,1.2c-1.2,1.9-4.6,3.7-7.4,3.7C39.4,209.4,35,204.7,35.1,196.9L35.1,196.9z"/>
	<path class="st2" d="M56.1,204.5c0-3.7,2.5-5.3,8.3-5.3h0.5c0.8,0,1.1-0.4,1.1-1.3c0-2.3-0.6-3.3-1.9-3.3c-1.9,0-2.5,3-4.7,3
		c-1.6,0-2.3-1.2-2.3-2c0-1,0.4-1.8,1.2-2.5c1.3-1.1,3.4-1.7,5.9-1.7c4.6,0,7.4,1.9,7.4,6.1v7c0,0.8,0.3,1.2,1,1.2
		c0.6,0,1.1,0.5,1.1,1.1c0,1.6-1.4,2.8-3.5,2.8c-1.2,0-2.3-0.6-3-1.5c-0.2-0.2-0.4-0.4-0.6-0.4s-0.4,0.1-0.6,0.3
		c-1.1,1.1-2.4,1.5-4.2,1.5C58.5,209.4,56.1,207.4,56.1,204.5L56.1,204.5z M66.1,203v-0.4c0-0.5-0.1-0.6-0.6-0.6h-0.8
		c-2,0-2.8,0.6-2.8,2c0,1.3,0.7,2.1,1.7,2.1C65,206.1,66.1,204.8,66.1,203L66.1,203z"/>
	<path class="st2" d="M75,207.2c0-0.8,0.6-1.3,0.6-4.1v-4.9c0-2.7-1-2.8-1-4.4c0-1.4,1.1-1.7,2.6-2.1c1.3-0.3,2.1-0.4,2.3-0.4
		c0.8,0,1.5,0.7,1.5,1.5v0.1c0,0.3,0.1,0.4,0.3,0.4c0.5,0,1.4-1.9,4.5-1.9c4,0,5.9,2.4,5.9,6.7v5.2c0,2.7,0.6,3.3,0.6,4.1
		c0,1.2-0.8,2-3.3,2c-2.8,0-3.6-0.9-3.6-2c0-0.8,0.9-1.3,0.9-4.1v-4.7c0-2.7-0.5-3.9-2.1-3.9c-1.8,0-3,2.1-3,4.3v4.3
		c0,2.7,0.9,3.3,0.9,4.1c0,1.2-0.8,2-3.6,2C75.7,209.2,75,208.3,75,207.2L75,207.2z"/>
	<path class="st2" d="M111.7,200.4c0,5.4-3.6,9.1-9,9.1c-5.4,0-9-3.7-9-9.1c0-5.4,3.6-9,9-9C108.1,191.3,111.7,194.9,111.7,200.4z
		 M105.9,200.2c0-3.7-0.9-5.6-3.2-5.6c-2.3,0-3.2,2.1-3.2,5.9s0.9,5.6,3.2,5.6C105,206.1,105.9,204,105.9,200.2L105.9,200.2z"/>
	<path class="st2" d="M131.1,200.4c0,5.4-3.6,9.1-9,9.1s-9-3.7-9-9.1c0-5.4,3.6-9,9-9C127.5,191.3,131.1,194.9,131.1,200.4z
		 M125.3,200.2c0-3.7-0.9-5.6-3.2-5.6c-2.3,0-3.2,2.1-3.2,5.9s0.9,5.6,3.2,5.6C124.4,206.1,125.3,204,125.3,200.2L125.3,200.2z"/>
	<path class="st2" d="M132.4,201c0-5.9,3.5-9.7,8.8-9.7c1.4,0,2.5,0.4,2.8,0.4c0.2,0,0.3-0.1,0.3-0.4v-0.7c0-2.8-1-2.8-1-4.4
		c0-1.4,1.1-1.7,2.6-2.1c1.3-0.3,2.1-0.4,2.3-0.4c0.8,0,1.5,0.7,1.5,1.5v16.8c0,2.5,1.5,3.7,1.5,4.8s-1.2,1.7-2.7,2.1
		c-1.2,0.3-1.5,0.4-1.9,0.4c-0.8,0-1.2-1.1-1.5-1.8c-0.1-0.5-0.2-0.5-0.4-0.5c-0.5,0-1.8,2.3-5,2.3C135.4,209.4,132.4,206,132.4,201
		L132.4,201z M144.3,201.9v-5.7c0-1.2-1-1.5-2.6-1.5c-2.3,0-3.5,1.8-3.5,5.8s1.1,5.7,2.9,5.7C142.9,206.1,144.3,204.6,144.3,201.9z"
		/>
	<path class="st2" d="M159.3,207.2c0,1.2-0.8,2-3.3,2c-2.5,0-3.3-0.9-3.3-2c0-0.8,0.6-1.3,0.6-4.1v-12.5c0-2.7-1-2.8-1-4.4
		c0-1.4,1.1-1.7,2.6-2.1c1.3-0.3,2.1-0.4,2.3-0.4c0.8,0,1.5,0.7,1.5,1.5v17.9C158.8,205.9,159.3,206.4,159.3,207.2L159.3,207.2z"/>
	<path class="st2" d="M161.1,200.4c0-5.4,3.3-9.1,8.3-9.1c5,0,7.9,2.8,7.9,7.1c0,1.7-0.7,2.6-1.9,2.6h-8.3c-0.2,0-0.2,0.1-0.2,0.3
		c0,2.2,1.7,3.8,4.1,3.8c1.3,0,2-0.2,3.2-0.7c0.6-0.3,1-0.4,1.3-0.4c0.4,0,0.6,0.1,0.8,0.3c0.2,0.2,0.3,0.5,0.3,0.8
		c0,0.5-0.2,1.1-0.6,1.5c-1.3,1.8-3.4,2.8-6.1,2.8C164.7,209.4,161.1,205.7,161.1,200.4L161.1,200.4z M171.4,197.7
		c0.2,0,0.2-0.1,0.2-0.3c0-1.7-0.9-2.8-2.2-2.8c-1.4,0-2.5,1.2-2.5,2.8c0,0.2,0.1,0.3,0.2,0.3H171.4L171.4,197.7z"/>
</g>
</svg>
